HIERARCHY
ROOT Hips
{
	OFFSET 0.000000 0.000000 0.000000
	CHANNELS 6 Xposition Yposition Zposition Zrotation Yrotation Xrotation 
	JOINT LHipJoint
	{
		OFFSET 0.000000 0.000000 0.000000
		CHANNELS 3 Zrotation Yrotation Xrotation
		JOINT LeftUpLeg
		{
			OFFSET 1.363060 -1.794630 0.839290
			CHANNELS 3 Zrotation Yrotation Xrotation
			JOINT LeftLeg
			{
				OFFSET 2.448110 -6.726130 0.000000
				CHANNELS 3 Zrotation Yrotation Xrotation
				JOINT LeftFoot
				{
					OFFSET 2.562200 -7.039590 0.000000
					CHANNELS 3 Zrotation Yrotation Xrotation
					JOINT LeftToeBase
					{
						OFFSET 0.157640 -0.433110 2.322550
						CHANNELS 3 Zrotation Yrotation Xrotation
						End Site
						{
							OFFSET 0.000000 0.000000 0.000000
						}
					}
				}
			}
		}
	}
	JOINT RHipJoint
	{
		OFFSET 0.000000 0.000000 0.000000
		CHANNELS 3 Zrotation Yrotation Xrotation
		JOINT RightUpLeg
		{
			OFFSET -1.305520 -1.794630 0.839290
			CHANNELS 3 Zrotation Yrotation Xrotation
			JOINT RightLeg
			{
				OFFSET -2.542530 -6.985550 0.000000
				CHANNELS 3 Zrotation Yrotation Xrotation
				JOINT RightFoot
				{
					OFFSET -2.568260 -7.056230 0.000000
					CHANNELS 3 Zrotation Yrotation Xrotation
					JOINT RightToeBase
					{
						OFFSET -0.164730 -0.452590 2.363150
						CHANNELS 3 Zrotation Yrotation Xrotation
						End Site
						{
							OFFSET 0.000000 0.000000 0.000000
						}
					}
				}
			}
		}
	}
	JOINT LowerBack
	{
		OFFSET 0.000000 0.000000 0.000000
		CHANNELS 3 Zrotation Yrotation Xrotation
		JOINT Spine
		{
			OFFSET 0.028270 2.035590 -0.193380
			CHANNELS 3 Zrotation Yrotation Xrotation
			JOINT Spine1
			{
				OFFSET 0.056720 2.048850 -0.042750
				CHANNELS 3 Zrotation Yrotation Xrotation
				JOINT Neck
				{
					OFFSET 0.000000 0.000000 0.000000
					CHANNELS 3 Zrotation Yrotation Xrotation
					JOINT Neck1
					{
						OFFSET -0.054170 1.746240 0.172020
						CHANNELS 3 Zrotation Yrotation Xrotation
						JOINT Head
						{
							OFFSET 0.104070 1.761360 -0.123970
							CHANNELS 3 Zrotation Yrotation Xrotation
							End Site
							{
								OFFSET 0.000000 0.000000 0.000000
							}
						}
					}
				}
				JOINT LeftShoulder
				{
					OFFSET 0.000000 0.000000 0.000000
					CHANNELS 3 Zrotation Yrotation Xrotation
					JOINT LeftArm
					{
						OFFSET 3.362410 1.200890 -0.311210
						CHANNELS 3 Zrotation Yrotation Xrotation
						JOINT LeftForeArm
						{
							OFFSET 4.983000 -0.000000 -0.000000
							CHANNELS 3 Zrotation Yrotation Xrotation
							JOINT LeftHand
							{
								OFFSET 3.483560 -0.000000 -0.000000
								CHANNELS 3 Zrotation Yrotation Xrotation
								JOINT LeftFingerBase
								{
									OFFSET 0.000000 0.000000 0.000000
									CHANNELS 3 Zrotation Yrotation Xrotation
									JOINT LeftHandIndex1
									{
										OFFSET 0.715260 -0.000000 -0.000000
										CHANNELS 3 Zrotation Yrotation Xrotation
										End Site
										{
											OFFSET 0.000000 0.000000 0.000000
										}
									}
								}
								JOINT LThumb
								{
									OFFSET 0.000000 0.000000 0.000000
									CHANNELS 3 Zrotation Yrotation Xrotation
									End Site
									{
										OFFSET 0.000000 0.000000 0.000000
									}
								}
							}
						}
					}
				}
				JOINT RightShoulder
				{
					OFFSET 0.000000 0.000000 0.000000
					CHANNELS 3 Zrotation Yrotation Xrotation
					JOINT RightArm
					{
						OFFSET -3.136600 1.374050 -0.404650
						CHANNELS 3 Zrotation Yrotation Xrotation
						JOINT RightForeArm
						{
							OFFSET -5.241900 -0.000000 -0.000000
							CHANNELS 3 Zrotation Yrotation Xrotation
							JOINT RightHand
							{
								OFFSET -3.444170 -0.000000 -0.000000
								CHANNELS 3 Zrotation Yrotation Xrotation
								JOINT RightFingerBase
								{
									OFFSET 0.000000 0.000000 0.000000
									CHANNELS 3 Zrotation Yrotation Xrotation
									JOINT RightHandIndex1
									{
										OFFSET -0.622530 -0.000000 -0.000000
										CHANNELS 3 Zrotation Yrotation Xrotation
										End Site
										{
											OFFSET 0.000000 0.000000 0.000000
										}
									}
								}
								JOINT RThumb
								{
									OFFSET 0.000000 0.000000 0.000000
									CHANNELS 3 Zrotation Yrotation Xrotation
									End Site
									{
										OFFSET 0.000000 0.000000 0.000000
									}
								}
							}
						}
					}
				}
			}
		}
	}
}
MOTION
Frames: 8
Frame Time: 0.008333
-10.973674 16.632740 -2.612612 5.166857 83.656971 21.355877 -9.827959 -0.914779 1.324009 -7.706185 1.170259 -44.881829 -1.734410 0.733270 18.469966 0.903973 5.992986 11.588818 2.349600 0.000000 -32.650800 10.112044 -2.630844 -1.797300 0.443721 -2.723803 1.537422 1.484545 -1.936726 24.559209 0.576680 6.717217 1.820602 0.875900 -0.000001 -85.226900 -6.598222 0.726220 0.995717 -2.143905 1.091035 -2.452233 -6.229501 1.054865 2.096591 8.574385 -3.647198 -5.037870 -3.276473 -0.271623 0.537534 0.000000 0.000000 0.000000 -8.305084 15.727339 1.255781 -53.751204 12.713066 19.039396 -4.302218 -33.052530 -0.037897 -14.247908 1.599501 -0.216081 -0.108298 -0.140294 -0.000000 0.000000 0.000000 0.000000 0.000000 0.000000 0.000000 13.989998 0.214304 0.884418 45.607293 23.107794 24.489876 1.732554 59.129868 0.022273 10.110991 10.526249 0.959714 -0.075383 -0.206542 -0.000000 0.000000 0.000000 0.000000 0.000000 0.000000 0.000000 
-10.819307 16.658914 -2.637278 7.165482 83.565895 23.401844 -9.779147 -0.900607 1.259949 -8.065342 0.996324 -44.652473 -1.723006 0.755265 19.417355 0.958379 6.369114 10.602168 2.382900 -0.000000 -32.187200 10.304439 -2.692424 -1.810188 -0.129841 -2.974901 0.240401 1.241438 -2.203150 27.122229 0.512262 6.639266 3.668442 1.084000 0.000000 -85.823200 -6.984923 0.642331 1.036883 -2.225665 1.027901 -2.453630 -6.281650 0.990171 2.070235 8.616855 -3.623439 -4.985494 -3.312596 -0.274556 0.546262 0.000000 0.000000 0.000000 -8.308659 15.447921 1.283974 -53.875622 12.182728 19.098980 -4.322672 -32.692472 -0.037569 -14.251362 1.802326 -0.240871 -0.109413 -0.137316 -0.000000 0.000000 0.000000 0.000000 0.000000 0.000000 0.000000 14.156787 0.161723 0.844687 46.400905 22.473719 24.679936 1.784219 58.462250 0.022150 10.127415 10.448719 0.953330 -0.071587 -0.200700 -0.000000 0.000000 0.000000 0.000000 0.000000 0.000000 0.000000 
-10.669649 16.687740 -2.663562 8.496444 83.435548 24.797243 -9.727018 -0.879691 1.206981 -8.346454 0.807722 -44.335501 -1.716542 0.760682 20.177102 1.016695 6.738991 9.502710 2.388900 0.000000 -31.970800 10.485872 -2.719742 -1.821682 -0.593136 -3.159728 -1.164616 0.975043 -2.449661 29.797876 0.408243 6.370452 5.672968 1.280000 -0.000000 -85.705000 -7.285533 0.579132 1.080433 -2.291787 0.980380 -2.454955 -6.330337 0.941223 2.042053 8.619336 -3.592005 -4.925454 -3.346596 -0.277390 0.557213 0.000000 0.000000 0.000000 -8.330780 15.146644 1.311584 -53.976393 11.591264 19.254456 -4.335182 -32.386265 -0.037074 -14.232320 1.983928 -0.262558 -0.110222 -0.134070 -0.000000 0.000000 0.000000 0.000000 0.000000 0.000000 0.000000 14.271047 0.118671 0.806757 47.188140 21.840759 24.852465 1.836424 57.760452 0.021979 10.151931 10.360200 0.946847 -0.068008 -0.194651 -0.000000 0.000000 0.000000 0.000000 0.000000 0.000000 0.000000 
-10.524559 16.718759 -2.691301 9.210617 83.265816 25.590136 -9.679857 -0.854203 1.161039 -8.558666 0.632590 -43.940363 -1.715421 0.752112 20.740427 1.076621 7.087963 8.373571 2.369699 0.000000 -31.944300 10.649401 -2.711988 -1.828637 -0.941038 -3.268749 -2.654627 0.692520 -2.669799 32.545939 0.262974 5.884412 7.796531 1.433200 -0.000000 -84.756600 -7.507753 0.535741 1.124747 -2.343242 0.948130 -2.456037 -6.375524 0.907654 2.014063 8.586250 -3.553913 -4.860483 -3.378308 -0.280081 0.569701 0.000000 0.000000 0.000000 -8.366969 14.837506 1.338360 -54.054203 10.932894 19.489435 -4.340267 -32.136571 -0.036378 -14.182526 2.139224 -0.280442 -0.110764 -0.130537 -0.000000 0.000000 0.000000 0.000000 0.000000 0.000000 0.000000 14.338273 0.085000 0.770740 47.960180 21.214456 25.013714 1.888149 57.035372 0.021749 10.181802 10.258533 0.939560 -0.064680 -0.188453 -0.000000 0.000000 0.000000 0.000000 0.000000 0.000000 0.000000 
-10.383807 16.751503 -2.720254 9.369772 83.060565 25.837204 -9.643307 -0.825894 1.117320 -8.711455 0.498113 -43.477086 -1.719104 0.732464 21.109944 1.135103 7.403441 7.289117 2.330700 -0.000000 -32.043400 10.791081 -2.669942 -1.829697 -1.171567 -3.302948 -4.202751 0.404188 -2.858991 35.322546 0.077729 5.163005 9.981312 1.506100 -0.000001 -82.918500 -7.657338 0.509779 1.170928 -2.380621 0.929240 -2.456404 -6.417281 0.887558 1.987091 8.522591 -3.508432 -4.792128 -3.407441 -0.282584 0.583337 0.000000 0.000000 0.000000 -8.412924 14.530112 1.364620 -54.109436 10.207288 19.779782 -4.338950 -31.945480 -0.035464 -14.095548 2.265228 -0.293619 -0.111107 -0.126705 -0.000000 0.000000 0.000000 0.000000 0.000000 0.000000 0.000000 14.362815 0.061730 0.736353 48.712673 20.595652 25.167479 1.938474 56.297303 0.021458 10.214111 10.143458 0.931271 -0.061621 -0.182168 -0.000000 0.000000 0.000000 0.000000 0.000000 0.000000 0.000000 
-10.247060 16.785567 -2.750059 9.071841 82.828456 25.629471 -9.619929 -0.796199 1.070853 -8.816765 0.425276 -42.954453 -1.726748 0.704391 21.296262 1.188752 7.676256 6.309221 2.279600 0.000000 -32.204600 10.910303 -2.596242 -1.825657 -1.289776 -3.274066 -5.780526 0.122051 -3.015773 38.082801 -0.143062 4.198519 12.151198 1.459500 0.000000 -80.235000 -7.741776 0.496947 1.222734 -2.404933 0.919983 -2.454935 -6.455890 0.877287 1.962181 8.435625 -3.456971 -4.722702 -3.433869 -0.284857 0.597458 0.000000 0.000000 0.000000 -8.463297 14.232854 1.391055 -54.142222 9.413669 20.098847 -4.332850 -31.811131 -0.034330 -13.968084 2.360755 -0.301991 -0.111346 -0.122561 -0.000000 0.000000 0.000000 0.000000 0.000000 0.000000 0.000000 14.352475 0.046809 0.703295 49.440912 19.985838 25.318114 1.986453 55.557132 0.021097 10.245649 10.016412 0.921780 -0.058841 -0.175858 -0.000000 0.000000 0.000000 0.000000 0.000000 0.000000 0.000000 
-10.113972 16.820651 -2.780310 8.430779 82.580676 25.073277 -9.610157 -0.765928 1.017391 -8.887339 0.427483 -42.379372 -1.737397 0.670348 21.316872 1.234449 7.900568 5.475879 2.224299 -0.000000 -32.372000 11.008308 -2.495318 -1.819126 -1.305156 -3.201536 -7.359878 -0.142502 -3.141868 40.782109 -0.392354 2.992630 14.220338 1.259800 0.000000 -76.909800 -7.769475 0.491988 1.285184 -2.417477 0.915695 -2.450443 -6.491771 0.872264 1.939543 8.333382 -3.400640 -4.653658 -3.457580 -0.286873 0.611617 0.000000 0.000000 0.000000 -8.512497 13.949087 1.418699 -54.152561 8.556113 20.417343 -4.323970 -31.730417 -0.032992 -13.800545 2.426602 -0.305657 -0.111596 -0.118105 -0.000000 0.000000 0.000000 0.000000 0.000000 0.000000 0.000000 14.315735 0.037856 0.671214 50.142407 19.383553 25.468391 2.031251 54.825364 0.020671 10.273219 9.881521 0.911185 -0.056336 -0.169597 0.000000 0.000000 0.000000 0.000000 0.000000 0.000000 0.000000 
-9.984083 16.856550 -2.810462 7.586332 82.330712 24.302044 -9.612210 -0.735435 0.954139 -8.939023 0.507581 -41.756900 -1.750637 0.631974 21.191666 1.269781 8.074354 4.811212 2.171700 -0.000000 -32.503301 11.088367 -2.373377 -1.813266 -1.234684 -3.108073 -8.917427 -0.380500 -3.242286 43.381579 -0.661093 1.560021 16.095697 0.886100 -0.000000 -73.184100 -7.753361 0.488908 1.362292 -2.420664 0.911175 -2.442290 -6.525983 0.867330 1.917985 8.226423 -3.341757 -4.585118 -3.479275 -0.288684 0.625718 0.000000 0.000000 0.000000 -8.553950 13.670299 1.448698 -54.138853 7.652824 20.699219 -4.314412 -31.705816 -0.031504 -13.599136 2.468108 -0.305418 -0.111962 -0.113397 -0.000000 0.000000 0.000000 0.000000 0.000000 0.000000 0.000000 14.266637 0.030635 0.640924 50.811706 18.784275 25.617898 2.072298 54.115913 0.020185 10.298197 9.742122 0.899888 -0.054128 -0.163449 0.000000 0.000000 0.000000 0.000000 0.000000 0.000000 0.000000 
